<?xml version="1.0" standalone="no"?><!DOCTYPE svg PUBLIC "-//W3C//DTD SVG 1.1//EN" "http://www.w3.org/Graphics/SVG/1.1/DTD/svg11.dtd"><svg t="1629430905887" class="icon" viewBox="0 0 1024 1024" version="1.1" xmlns="http://www.w3.org/2000/svg" p-id="1943" data-spm-anchor-id="a313x.7781069.0.i10" xmlns:xlink="http://www.w3.org/1999/xlink" width="200" height="200"><defs><style type="text/css"></style></defs><path d="M282.8 624.4l2.1 1.5h0.1c1.5 0.9 3 1.6 4.7 2 9.3 2.3 18.7-3.5 21-12.8 1.1-4.6 0.4-9.3-1.9-13-22.9-46.3-26.4-88.5-12.3-145.9l0.7-3.5c0.7-6.5-2.2-13-8-16.8-1.6-1-3.2-1.7-4.9-2.1-8.1-2-16.5 2.1-20.1 9.8l-1.4 4.5c-15.8 64-11.4 114 14.4 167.2 0.1 0.1 3.4 7.6 5.6 9.1zM285.9 413.7c1.7 1.1 3.5 1.9 5.4 2.4 4.8 1.3 9.9 0.7 14.3-1.8s7.5-6.5 8.8-11.4c2.2-7.9-1-16.2-7.8-20.7-1.7-1.1-3.5-1.9-5.4-2.4-10-2.7-20.3 3.2-23.1 13.1-2.2 8 0.9 16.3 7.8 20.8z" fill="#35a7ff" p-id="1944" data-spm-anchor-id="a313x.7781069.0.i9" class="selected"></path><path d="M958.5 404.7l-1.7-10.9-3.2-10.7-2.1-5.3-2.5-5.1-2.8-5-3.2-4.8-3.4-4.6-3.7-4.4-4-4.2-4.3-4-4.5-3.9-4.7-3.7-5-3.5-5.2-3.4-5.4-3.2-5.6-3-5.8-2.9-6-2.7-6.2-2.6-6.4-2.4-6.5-2.3-6.7-2.2-6.9-2-6.7-1.9-7.2-1.8-7.4-1.6-7.6-1.5-7.8-1.4-7.9-1.3-8.1-1.1-8.2-1-8.4-0.9-9.1-0.5-9.2-10.7-10.7-11.3-11.4-10.7-11.6-10.3-12.1-9.7-12.6-9.2-13-8.6-13.4-8-13.8-7.4-14.2-6.8-14.5-6.2-14.9-5.5-15.1-4.8-15.5-4.1-15.7-3.4-16-2.7-16.2-1.9-16.4-1.2-16.7-0.4-17.6 0.5-17.4 1.3-17.1 2.2-16.9 3-16.5 3.8-16.2 4.6-15.9 5.4-15.6 6.1-15.1 6.8-14.7 7.6-14.3 8.2-13.9 8.9-13.4 9.5-12.9 10.1-12.4 10.8-11.9 11.3-11.3 11.9-10.7 12.4-10.2 12.9-9.5 13.4-8.9 13.9-8.2 14.3-7.6 14.7-6.8 15.2-6.1 15.6-5.4 15.9-4.6 16.2-3.8 16.6-2.9 17.6-8.9 6.5-7.2 5.5-7 5.5-6.7 5.6-6.5 5.6-6.3 5.6-6 5.6-5.8 5.7-5.5 5.7-5.3 5.7-5 5.7-4.8 5.8L94 537l-4.2 5.8-3.9 5.8-3.6 5.9-3.3 5.9-3.1 5.9-2.7 5.9-2.4 6-2.1 6-1.7 6-1.4 6.1-1 6.1-0.6 6.1-0.2 6.1 0.2 6.1 0.6 6.1 1 6 1.5 5.9 2 5.8 4.5 10.2 5.8 9.6 6.9 8.9 8 8.1 8.9 7.5 9.8 6.8 10.6 6.2 11.4 5.6 12.1 5 12.9 4.5 13.5 4 14.2 3.4 14.9 3 15.5 2.4 16.1 2 14.3 1 7.3 8.5 6.4 7 6.5 6.7 6.7 6.6 6.9 6.4 7.1 6.2 7.2 6 7.4 5.8 7.6 5.6 7.7 5.4 7.9 5.2 8.1 5 8.2 4.8 8.3 4.5 8.5 4.3 8.6 4.1 8.7 3.9 8.9 3.6 9 3.4 9.1 3.1 9.2 2.9 9.3 2.6 9.4 2.4 9.6 2.1 9.6 1.8 9.7 1.6 9.8 1.3 9.9 1 10 0.7 10 0.4 10.1 0.1 16.3-0.4 16-1.1 15.8-1.8 15.6-2.6 15.4-3.2 15.1-4 14.8-4.6 14.5-5.3 14.2-5.9 13.9-6.5 13.5-7.1 13.2-7.7 12.8-8.2 12.4-8.8 12-9.3 11.6-9.8 11.1-10.3 10.6-10.8 10.2-11.2 9.6-11.7 9.2-12.1 8.6-12.5 8.1-12.9 7.5-13.3 6.9-13.6 6.3-14 5.7-14.3 5.1-14.6 4.4-14.9 3.7-15.2 3-15.4 0.8-7.4 2.5-1.8 13.3-10 12.5-10.1 11.8-10.2 11-10.2 10.1-10.3 9.3-10.4 8.4-10.5 7.5-10.6 6.6-10.6 5.6-10.7 4.6-10.8 3.5-10.9 2.3-11 1-11.1-0.6-11.3z m-752.4 93.2l1.2-15.5 2-15.3 2.7-15 3.4-14.8 4.1-14.5 4.8-14.2 5.5-13.9 6.1-13.6 6.8-13.2 7.4-12.8 7.9-12.4 8.5-12 9.1-11.5 9.6-11.1 10.1-10.6 10.6-10.1 11.1-9.6 11.5-9.1 12-8.5 12.4-7.9 12.8-7.4 13.2-6.8 13.6-6.1 13.9-5.5 14.2-4.8 14.5-4.1 14.8-3.4 15-2.7 15.3-1.9 15.5-1.2 15.8-0.4 14.9 0.4 14.7 1.1 14.5 1.7 14.3 2.4 14 3.1 13.8 3.7 13.5 4.3 13.3 4.9 13 5.5 12.6 6.1 12.3 6.6 12 7.2 11.6 7.7 11.2 8.2 10.8 8.7 10.4 9.2 10 9.7 9.5 10.1 9.1 10.5 8.6 10.9 8.1 11.3 7.6 11.7 7.1 12 6.5 12.4 6 12.7 5.4 13 4.8 13.3 4.2 13.6 3.6 13.8L812 458l2.3 14.4 1.1 7.4-2.9 3.6-6.3 7.1-7.1 7.2-7.8 7.3-8.5 7.3-9.1 7.3-9.8 7.3-10.4 7.3-11 7.3-11.6 7.2-12.2 7.1-12.7 7-13.2 6.9-13.7 6.8-14.2 6.6-14.7 6.5-15.1 6.3-15.6 6.1-15.9 5.9-16.4 5.6-16.7 5.4-17.1 5.2-17.2 4.8-17.1 4.5-17 4.1-16.8 3.7-16.6 3.3-16.4 2.9-16.2 2.5-15.9 2.2-15.6 1.8-15.3 1.4-14.9 1.1-14.6 0.7-14.2 0.3h-13.8l-13.3-0.4-12.8-0.7-12.3-1.1-11.8-1.4-11.2-1.8-10.6-2.1-10-2.4-9.3-2.7-6.4-1.9-2.5-5.6-3.4-7.9-1.6-4-3-8-2.8-8.1-1.3-4.1-1.3-4.1-1.2-4.2-1.1-4.2-1.1-4.2-1-4.2-1-4.3-0.9-4.3-1.6-8.6-0.7-4.3-0.7-4.4-0.6-4.3-0.5-4.4-0.5-4.4-0.8-8.9-0.3-4.5-0.2-4.5-0.2-4.5-0.1-4.5v-4.5l0.4-16z m80.4 200.7l-16.8-0.5-16.2-1-15.6-1.4L223 694l-14.2-2.2-13.5-2.7-12.7-3.1-11.9-3.5-11.1-3.8-10.1-4.2-9.2-4.5-8.3-4.8-7.3-5.1-6.3-5.3-5.3-5.5-4.4-5.6-3.5-5.8-2.6-6-1.1-3.4-0.9-3.4-0.6-3.5-0.3-3.6-0.1-3.6 0.1-3.7 0.4-3.8 0.7-3.9 0.9-4 1.2-4.2 1.5-4.3 1.8-4.4 2-4.5 2.4-4.6 2.6-4.6 2.9-4.7 3.2-4.8 3.5-4.9 3.8-4.9 4.1-4.9 4.3-5 4.6-5 4.9-5 5.2-5.1 5.4-5.1 5.7-5.1 6-5.1 3.3-2.7-0.1 3.6 0.1 5.1 0.1 5 0.2 5 0.3 5 0.2 3.2-1.6 2.4-1.7 2.6-1.6 2.6-1.5 2.6-1.5 2.7-1.4 2.7-1.3 2.7-1.2 2.7-1.1 2.7-1.1 2.7-1 2.8-0.9 2.7-0.8 2.8-0.7 2.8-0.6 2.8-0.6 2.8-0.5 2.8-0.3 2.8-0.3 2.8-0.1 2.8-0.1 2.8v2.8l0.2 2.8 0.3 2.8 0.4 2.8 0.5 2.8 0.6 2.8 0.7 2.8 0.8 2.7 0.9 2.7 3.8 8.5 4.8 8 5.8 7.3 6.6 6.7 7.3 6.1 8 5.6 8.7 5.1 9.3 4.5 9.9 4.1 10.4 3.6 11 3.2 11.5 2.8 12 2.4 12.5 2 13 1.6 13.4 1.2 13.9 0.8 14.3 0.4 14.7 0.1 15.1-0.3 15.4-0.7 15.8-1.1 16.1-1.5 16.4-1.9 16.6-2.3 15.6-2.5-18.7 3.3-20.3 3.2-20 2.8-19.6 2.2-19.3 1.8-18.8 1.3-18.4 0.9-17.9 0.4-17.8-0.1z m516.1-91.7l-4.5 13-5.1 12.8-5.6 12.5-6.2 12.2-6.7 11.9-7.2 11.5-7.7 11.2-8.2 10.8-8.6 10.4-9 10.1-9.5 9.6-9.9 9.2L704 751l-10.7 8.3-11.1 7.8-11.4 7.4-11.8 6.8-12.1 6.3-12.4 5.8-12.7 5.2-13 4.7-13.2 4.1-13.5 3.5-13.7 2.9-13.9 2.3-14.2 1.7-14.3 1-14.6 0.3-9.1-0.1-9-0.4-8.9-0.7-8.9-0.9-8.8-1.2-8.7-1.4-8.6-1.7-8.5-1.9-8.4-2.1-8.3-2.3-8.2-2.6-8.1-2.8-8-3-7.9-3.2-7.8-3.5-7.7-3.7-7.6-3.8-7.4-4.1-7.3-4.3-7.2-4.5-7.1-4.6-6.9-4.8-6.8-5-6.6-5.2-6.5-5.4-6.3-5.6-6.7-6.2 22.9-0.1 19.2-0.9 19.6-1.4 20.1-1.9 20.4-2.3 20.7-2.8 21.1-3.3 21.3-3.8 21.6-4.3 21.8-4.8 22-5.3 22.2-5.8 22.3-6.3 22.1-6.7 21.7-7 21.3-7.4 20.8-7.7 20.3-7.9 19.8-8.2 19.2-8.4 18.6-8.7 18-8.9 17.4-9.1 16.8-9.3 15.6-9.1-4.3 14.2z m119.9-185.4l-1.5 7.3-2.4 7.7-3.4 8-4.3 8.3-5.3 8.6-6.2 8.8-7.2 8.9-8.1 9.1-9 9.2-9.9 9.2-10.7 9.3-11.6 9.3-12.4 9.3-13.1 9.2-13.9 9.2-14.6 9.1-15.3 9-16 8.9-16.7 8.7-17.3 8.5-17.9 8.4-18.5 8.2-19.1 7.9-19.6 7.7-3.5 1.3 3.4-1.3 15.8-6.6 15.4-6.8 14.9-7 14.4-7.1 14-7.3 13.5-7.4 12.9-7.6 12.4-7.7 11.8-7.8 11.3-7.9 10.7-8 10.1-8.1 9.4-8.2 8.8-8.3 8.2-8.4 7.5-8.4 6.8-8.5 6.1-8.6 5.3-8.7 4.6-8.8 3.7-8.9 2.9-9 1.9-9.1 0.9-9.2-0.3-9.2-1.4-9.1-2.6-8.9-0.9-2.3-1-2.3-1-2.2-1.1-2.2-1.2-2.2-1.3-2.1-1.4-2.1-1.4-2-1.5-2-1.5-2-1.6-1.9-1.7-1.9-1.7-1.8-1.8-1.8-1.8-1.7-1.9-1.7-1.9-1.7-2-1.6-2-1.6-2.1-1.5-2.1-1.5-2.2-1.5-2.2-1.4-2.3-1.4-2.3-1.3-2.3-1.3-2.4-1.3-2.4-1.2-2.4-1.2-1.7-0.8-4.9-9.3-7.9-13.5-0.4-0.6 1.3 0.2 7.3 1.2 7.1 1.3 6.9 1.4 6.7 1.5 6.5 1.6 6.3 1.7 6.1 1.8 5.8 1.9 5.6 2 5.4 2.1 5.1 2.2 4.9 2.2 4.7 2.3 4.4 2.4 4.2 2.5 3.9 2.6 3.7 2.6 3.4 2.7 3.2 2.7 2.9 2.8 2.6 2.8 2.4 2.8 2.2 2.9 1.9 2.9 1.7 3 1.5 3 1.2 3.1 1.8 6.2 1 6.3 0.2 6.6-0.5 6.4z" fill="#35a7ff" p-id="1945" data-spm-anchor-id="a313x.7781069.0.i6" class=""></path><path d="M321.8 698.3l18.3-0.9 18.8-1.3 19.3-1.8 19.6-2.2 20-2.8 20.4-3.1 18.7-3.4-15.6 2.5-16.6 2.3-16.4 1.8-16.1 1.5-15.7 1.1-15.5 0.8-15.1 0.3-14.6-0.1-14.3-0.4-13.9-0.8-13.4-1.2-13-1.6-12.5-2-12-2.4-11.5-2.8-11-3.2-10.4-3.6-9.9-4.1-9.3-4.5-8.6-5.1-8.1-5.6-7.3-6.1-6.6-6.8-5.8-7.3-4.8-8-3.8-8.5-0.9-2.7-0.8-2.7-0.7-2.8-0.6-2.7-0.5-2.8-0.4-2.8-0.2-2.8-0.2-2.8v-5.6l0.2-2.8 0.3-2.9 0.3-2.8 0.5-2.8 0.6-2.7 0.6-2.8 0.7-2.8 0.8-2.7 1-2.8 1-2.7 1-2.7 1.2-2.7 1.2-2.7 1.3-2.7 1.4-2.7 1.5-2.7 1.5-2.6 1.6-2.7 1.7-2.6 1.6-2.4-0.2-3.2-0.3-5-0.2-5.1-0.1-5v-5.1l0.1-3.6-3.4 2.8-6 5.1-5.6 5.1-5.5 5.1-5.1 5-4.9 5.1-4.7 5-4.3 5-4.1 4.9-3.8 4.9-3.5 4.8-3.2 4.8-2.9 4.8-2.6 4.6-2.4 4.5-2 4.5-1.8 4.4-1.5 4.3-1.2 4.1-0.9 4.1-0.6 3.9-0.4 3.8-0.2 3.8 0.1 3.6 0.4 3.6 0.6 3.4 0.8 3.5 1.1 3.4h0.1l2.6 6 3.5 5.8 4.4 5.6 5.4 5.4 6.3 5.3 7.3 5.1 8.3 4.8 9.2 4.5 10.1 4.2 11.1 3.9 11.9 3.4 12.7 3.1 13.4 2.7L223 694l15 1.8 15.5 1.4 16.2 0.9 16.8 0.5 17.4 0.1zM922 401.6l-1.8-6.2-1.3-3.1-1.5-3-1.7-3-1.9-2.9-2.1-2.9-2.4-2.9-2.7-2.8-2.9-2.7-3.1-2.8-3.4-2.6-3.7-2.6-3.9-2.6-4.1-2.4-4.5-2.5-4.6-2.3-5-2.2-5.1-2.2-5.4-2-5.6-2-5.8-1.9-6.1-1.8-6.3-1.7-6.4-1.5-6.7-1.5-6.9-1.3-7.1-1.3-7.2-1.2-1.4-0.1 0.4 0.6 7.9 13.4 5 9.4 1.6 0.7 2.5 1.2 2.4 1.3 2.4 1.2 2.3 1.3 2.3 1.4 2.3 1.4 2.2 1.4 2.1 1.4 2.2 1.5 2 1.5 2 1.6 2 1.6 1.9 1.7 1.9 1.7 1.8 1.7 1.8 1.8 1.7 1.8 1.7 1.8 1.5 1.9 1.6 2 1.4 2 1.4 2 1.4 2.1 1.2 2.1 1.3 2.2 1.1 2.2 1 2.2 1 2.3 0.9 2.3 2.6 8.9 1.4 9.2 0.3 9.2-0.9 9.2-1.9 9.1-2.8 9-3.8 8.9-4.5 8.8-5.4 8.7-6.1 8.6-6.8 8.5-7.5 8.4-8.2 8.4-8.8 8.2-9.5 8.2-10.1 8.2-10.7 8-11.3 7.9-11.8 7.8-12.4 7.7-13 7.6-13.5 7.4-13.9 7.4-14.5 7.1-14.9 6.9-15.4 6.8-15.8 6.6-3.4 1.3 3.5-1.3 19.6-7.7 19-7.9 18.5-8.1 17.9-8.4 17.4-8.5 16.6-8.7 16.1-8.9 15.3-9 14.6-9.1 13.9-9.1 13.2-9.3 12.3-9.3 11.6-9.2 10.7-9.3 9.9-9.3 9-9.1 8.1-9.1 7.2-9 6.2-8.7 5.3-8.6 4.3-8.3 3.4-7.9 2.4-7.7 1.5-7.3 0.7-6.9-0.2-6.7z" fill="#38618c" p-id="1946" data-spm-anchor-id="a313x.7781069.0.i8" class=""></path></svg>